
<svg id="Layer_1" data-name="Layer 1" xmlns="http://www.w3.org/2000/svg" viewBox="0 0 460.19 453.29"><defs><style>.cls-1{fill:#fff;}.cls-1,.cls-2{stroke:#231f20;stroke-miterlimit:10;stroke-width:25.2px;}.cls-2{fill:none;}</style></defs><ellipse class="cls-1" cx="230.09" cy="226.64" rx="217.49" ry="214.04"/><path class="cls-1" d="M430.32,45.14c-.82.24-26.05,400.16-26.05,400.16" transform="translate(-263.29 -18.58)"/><path class="cls-1" d="M638.53,108.18" transform="translate(-263.29 -18.58)"/><line class="cls-1" x1="385.87" y1="89.6" x2="154.01" y2="420.34"/><path class="cls-1" d="M562.84,231.31" transform="translate(-263.29 -18.58)"/><path class="cls-2" d="M409.88,69.46c-16.41,9.74-95.13,58.73-113.8,151.76-2.14,10.67-10.95,59.09,9.57,113,1.39,3.66,33.27,85.34,71.26,82.69a32.28,32.28,0,0,0,12.76-4.19C428.86,389.54,414.82,144.56,409.88,69.46Z" transform="translate(-263.29 -18.58)"/><path class="cls-1" d="M656.61,120.74,431.15,440" transform="translate(-263.29 -18.58)"/><path class="cls-2" d="M434.74,435.14c21.44,2.44,125.59,12.25,196.87-53.25,8.17-7.52,44.88-42.11,55.42-100.34,3.89-21.49-8-104.43-8.27-114-.79-30-16.51-29.08-28-5.44C628.11,208.41,472.93,369.39,434.74,435.14Z" transform="translate(-263.29 -18.58)"/></svg>